<?xml version="1.0" encoding="UTF-8"?>
<svg enable-background="new 0 0 512.002 512.002" fill="#ffffff" version="1.1" viewBox="0 0 512 512" xml:space="preserve" xmlns="http://www.w3.org/2000/svg">
		<path d="m410.36 256.13-20.78-20.779c-1.875-1.875-4.418-2.929-7.07-2.929h-12.039v-20.298h32.816c5.523 0 10-4.477 10-10s-4.477-10-10-10h-32.816v-20.297h12.039c2.652 0 5.195-1.054 7.07-2.929l20.779-20.78c3.904-3.905 3.904-10.237-2e-3 -14.142-3.904-3.905-10.236-3.905-14.141 1e-3l-17.85 17.851h-17.969v-5.112c0-10.185-3.813-19.49-10.074-26.584v-19.192c0-5.523-4.478-10-10-10-5.523 0-10 4.477-10 10v6.853c-3.244-0.846-6.645-1.299-10.15-1.299-3.504 0-6.904 0.453-10.148 1.299v-6.853c0-5.523-4.477-10-10-10-5.521 0-10 4.477-10 10v19.193c-6.262 7.094-10.074 16.399-10.074 26.584v5.112h-17.969l-17.85-17.851c-3.904-3.905-10.236-3.906-14.141-1e-3 -3.906 3.905-3.906 10.237-2e-3 14.142l20.779 20.78c1.875 1.876 4.418 2.929 7.07 2.929h12.039v20.297h-32.817c-5.523 0-10 4.477-10 10s4.477 10 10 10h32.817v20.298h-12.039c-2.652 0-5.195 1.054-7.07 2.929l-20.779 20.778c-3.904 3.905-3.904 10.237 0 14.143 1.953 1.953 4.512 2.929 7.072 2.929 2.559 0 5.117-0.976 7.07-2.929l17.85-17.85h8.898c4.65 22.96 24.986 40.297 49.297 40.297 24.31 0 44.645-17.338 49.295-40.297h8.897l17.85 17.85c1.953 1.953 4.512 2.929 7.07 2.929 2.561 0 5.119-0.976 7.072-2.929 3.904-3.905 3.904-10.237 0-14.143zm-90.186-129.64c11.15 0 20.223 9.072 20.223 20.223v5.112h-40.447v-5.112h-1e-3c0-11.151 9.072-20.223 20.225-20.223zm30.296 115.93c1e-3 13.202-8.49 24.453-20.296 28.594v-68.892c0-5.523-4.477-10-10-10-5.521 0-10 4.477-10 10v68.892c-11.805-4.141-20.297-15.391-20.297-28.594v-70.595h60.593v70.595z"/>
		<path d="m320.17 0c-105.77 0-191.83 86.055-191.83 191.83 0 41.579 13.303 80.106 35.869 111.56l-17.99 17.991-0.492-0.491c-1.875-1.875-4.418-2.929-7.07-2.929s-5.197 1.054-7.072 2.929l-119.3 119.3c-7.924 7.924-12.289 18.492-12.289 29.759-2e-3 11.268 4.363 21.836 12.289 29.761 7.924 7.925 18.492 12.289 29.76 12.289s21.836-4.364 29.76-12.289l119.3-119.3c3.906-3.905 3.906-10.236 0-14.142l-0.492-0.493 17.99-17.992c31.457 22.567 69.986 35.871 111.57 35.871 105.77 0 191.83-86.053 191.83-191.83 0-105.78-86.055-191.83-191.83-191.83zm-262.51 485.57c-4.146 4.147-9.693 6.431-15.617 6.431s-11.471-2.284-15.621-6.434c-4.146-4.145-6.43-9.691-6.428-15.615 0-5.925 2.283-11.471 6.432-15.618l112.23-112.23 0.451 0.452c0.014 0.013 0.025 0.028 0.037 0.041l30.254 30.251 0.492 0.493-112.23 112.23zm118.81-133.94-0.252-0.253-15.857-15.857 16.42-16.419c5.049 5.682 10.428 11.061 16.109 16.11l-16.42 16.419zm143.7 12.022c-94.746 0-171.83-77.081-171.83-171.83 0-94.748 77.082-171.83 171.83-171.83s171.83 77.082 171.83 171.83c0 94.745-77.082 171.83-171.83 171.83z"/>
		<path d="m464.55 144.86c-1.709-5.252-7.353-8.122-12.603-6.416-5.252 1.709-8.123 7.351-6.416 12.603 7.91 24.31 8.592 50.209 1.975 74.9-1.43 5.335 1.736 10.818 7.07 12.248 0.867 0.232 1.738 0.343 2.596 0.343 4.414 0 8.455-2.946 9.652-7.413 7.62-28.437 6.835-58.267-2.274-86.265z"/>
		<path d="m451.84 116.24-0.174-0.308c-2.752-4.789-8.863-6.443-13.652-3.691-4.789 2.75-6.441 8.863-3.691 13.652l0.152 0.27c1.846 3.23 5.221 5.04 8.691 5.04 1.684 0 3.389-0.425 4.953-1.319 4.795-2.741 6.461-8.849 3.721-13.644z"/>
</svg>