<svg version="1.1" id="Capa_1" xmlns="http://www.w3.org/2000/svg" fill="#ffffff" xmlns:xlink="http://www.w3.org/1999/xlink" x="0px" y="0px"
	 viewBox="0 0 512.002 512.002" style="enable-background:new 0 0 512.002 512.002;" xml:space="preserve">
<g>
	<g>
		<path d="M410.359,256.13l-20.78-20.779c-1.875-1.875-4.418-2.929-7.07-2.929H370.47v-20.298h32.816c5.523,0,10-4.477,10-10
			c0-5.523-4.477-10-10-10H370.47v-20.297h12.039c2.652,0,5.195-1.054,7.07-2.929l20.779-20.78
			c3.904-3.905,3.904-10.237-0.002-14.142c-3.904-3.905-10.236-3.905-14.141,0.001l-17.85,17.851H360.47h-0.074v-5.112
			c0-10.185-3.813-19.49-10.074-26.584V100.94c0-5.523-4.478-10-10-10c-5.523,0-10,4.477-10,10v6.853
			c-3.244-0.846-6.645-1.299-10.15-1.299c-3.504,0-6.904,0.453-10.148,1.299v-6.853c0-5.523-4.477-10-10-10c-5.521,0-10,4.477-10,10
			v19.193c-6.262,7.094-10.074,16.399-10.074,26.584v5.112h-0.072h-17.897l-17.85-17.851c-3.904-3.905-10.236-3.906-14.141-0.001
			c-3.906,3.905-3.906,10.237-0.002,14.142l20.779,20.78c1.875,1.876,4.418,2.929,7.07,2.929h12.039v20.297h-32.817
			c-5.523,0-10,4.477-10,10s4.477,10,10,10h32.817v20.298h-12.039c-2.652,0-5.195,1.054-7.07,2.929l-20.779,20.778
			c-3.904,3.905-3.904,10.237,0,14.143c1.953,1.953,4.512,2.929,7.072,2.929c2.559,0,5.117-0.976,7.07-2.929l17.85-17.85h8.898
			c4.65,22.96,24.986,40.297,49.297,40.297c24.31,0,44.645-17.338,49.295-40.297h8.897l17.85,17.85
			c1.953,1.953,4.512,2.929,7.07,2.929c2.561,0,5.119-0.976,7.072-2.929C414.263,266.368,414.263,260.036,410.359,256.13z
			 M320.173,126.492c11.15,0,20.223,9.072,20.223,20.223v5.112h-40.447v-5.112h-0.001
			C299.948,135.564,309.02,126.492,320.173,126.492z M350.469,242.423c0.001,13.202-8.49,24.453-20.296,28.594v-68.892
			c0-5.523-4.477-10-10-10c-5.521,0-10,4.477-10,10v68.892c-11.805-4.141-20.297-15.391-20.297-28.594v-70.595h0.072h60.447h0.074
			V242.423z"/>
	</g>
</g>
<g>
	<g>
		<path d="M320.173,0C214.399,0,128.345,86.055,128.345,191.83c0,41.579,13.303,80.106,35.869,111.561l-17.99,17.991l-0.492-0.491
			c-1.875-1.875-4.418-2.929-7.07-2.929c-2.652,0-5.197,1.054-7.072,2.929L12.29,440.193c-7.924,7.924-12.289,18.492-12.289,29.759
			c-0.002,11.268,4.363,21.836,12.289,29.761c7.924,7.925,18.492,12.289,29.76,12.289s21.836-4.364,29.76-12.289l119.299-119.301
			c3.906-3.905,3.906-10.236,0-14.142l-0.492-0.493l17.99-17.992c31.457,22.567,69.986,35.871,111.566,35.871
			c105.773,0,191.828-86.053,191.828-191.826C512.001,86.055,425.946,0,320.173,0z M57.667,485.571
			c-4.146,4.147-9.693,6.431-15.617,6.431s-11.471-2.284-15.621-6.434c-4.146-4.145-6.43-9.691-6.428-15.615
			c0-5.925,2.283-11.471,6.432-15.618l112.229-112.232l0.451,0.452c0.014,0.013,0.025,0.028,0.037,0.041l30.254,30.251l0.492,0.493
			L57.667,485.571z M176.474,351.634l-0.252-0.253l-15.857-15.857l16.42-16.419c5.049,5.682,10.428,11.061,16.109,16.11
			L176.474,351.634z M320.173,363.656c-94.746,0-171.828-77.081-171.828-171.826C148.345,97.082,225.427,20,320.173,20
			s171.828,77.082,171.828,171.83C492.001,286.575,414.919,363.656,320.173,363.656z"/>
	</g>
</g>
<g>
	<g>
		<path d="M464.552,144.862c-1.709-5.252-7.353-8.122-12.603-6.416c-5.252,1.709-8.123,7.351-6.416,12.603
			c7.91,24.31,8.592,50.209,1.975,74.9c-1.43,5.335,1.736,10.818,7.07,12.248c0.867,0.232,1.738,0.343,2.596,0.343
			c4.414,0,8.455-2.946,9.652-7.413C474.446,202.69,473.661,172.86,464.552,144.862z"/>
	</g>
</g>
<g>
	<g>
		<path d="M451.845,116.245l-0.174-0.308c-2.752-4.789-8.863-6.443-13.652-3.691c-4.789,2.75-6.441,8.863-3.691,13.652l0.152,0.27
			c1.846,3.23,5.221,5.04,8.691,5.04c1.684,0,3.389-0.425,4.953-1.319C452.919,127.148,454.585,121.04,451.845,116.245z"/>
	</g>
</g>

</svg>
