<?xml version="1.0" encoding="UTF-8"?>
<svg enable-background="new 0 0 477.867 477.867" fill="#ffffff" version="1.1" viewBox="0 0 477.87 477.87" xml:space="preserve" xmlns="http://www.w3.org/2000/svg">
	<path d="m238.93 0c-131.96 0-238.93 106.97-238.93 238.93s106.97 238.93 238.93 238.93 238.93-106.97 238.93-238.93c-0.14-131.9-107.03-238.79-238.93-238.93zm0 443.73c-113.11 0-204.8-91.692-204.8-204.8s91.692-204.8 204.8-204.8 204.8 91.692 204.8 204.8c-0.122 113.06-91.742 204.68-204.8 204.8z"/>
	<path d="m370.05 141.53c-6.614-6.388-17.099-6.388-23.712 0l-158.6 158.6-56.201-56.201c-6.548-6.78-17.353-6.967-24.132-0.419-6.78 6.548-6.967 17.353-0.419 24.132 0.137 0.142 0.277 0.282 0.419 0.419l68.267 68.267c6.664 6.663 17.468 6.663 24.132 0l170.67-170.67c6.548-6.779 6.36-17.583-0.42-24.131z"/>
</svg>
